<svg xmlns="http://www.w3.org/2000/svg" version="1.1" xmlns:xlink="http://www.w3.org/1999/xlink" xmlns:svgjs="http://svgjs.dev/svgjs" viewBox="0 0 1000 625">
  <g transform="matrix(1,0,0,1,0,0)">
    <svg viewBox="0 0 512 320" data-background-color="#ffffff" preserveAspectRatio="xMidYMid meet" height="625" width="1000" xmlns="http://www.w3.org/2000/svg" xmlns:xlink="http://www.w3.org/1999/xlink">
      <g id="tight-bounds" transform="matrix(1,0,0,1,0,0)">
        <svg viewBox="0 0 512 320" height="320" width="512">
          <g>
            <path d="M96 160c0-88.366 71.634-160 160-160 88.366 0 160 71.634 160 160 0 88.366-71.634 160-160 160-88.366 0-160-71.634-160-160z" fill="#FCD34D" fill-rule="nonzero" stroke="none" stroke-width="1" stroke-linecap="butt" stroke-linejoin="miter" stroke-miterlimit="10" stroke-dasharray="" stroke-dashoffset="0" font-family="none" font-weight="none" font-size="none" text-anchor="none" style="mix-blend-mode: normal" data-fill-palette-color="tertiary"></path>
          </g>
          <g transform="matrix(1,0,0,1,185.53488372093022,80)">
            <svg viewBox="0 0 140.93023255813955 160" height="160" width="140.93023255813955">
              <g>
                <svg viewBox="0 0 140.93023255813955 160" height="160" width="140.93023255813955">
                  <g>
                    <svg viewBox="0 0 140.93023255813955 160" height="160" width="140.93023255813955">
                      <g id="textblocktransform">
                        <svg viewBox="0 0 140.93023255813955 160" height="160" width="140.93023255813955" id="textblock">
                          <g>
                            <svg viewBox="0 0 140.93023255813955 160" height="160" width="140.93023255813955">
                              <g transform="matrix(1,0,0,1,0,0)">
                                <svg width="140.93023255813955" viewBox="3.7 -34.4 30.3 34.4" height="160" data-palette-color="#ffffff">
                                  <path d="M23-34.4Q26.2-34.4 28.7-32.93 31.2-31.45 32.6-28.88 34-26.3 34-23.1L34-23.1 34-22.45Q34-19.25 32.6-16.65 31.2-14.05 28.7-12.58 26.2-11.1 23-11.1L23-11.1 14.75-11.1 14.75 0 3.7 0 3.7-34.4 23-34.4ZM14.75-26.25L14.75-19.15 19.3-19.15Q21.05-19.15 21.93-20.05 22.8-20.95 22.8-22.5L22.8-22.5 22.8-22.9Q22.8-24.5 21.93-25.38 21.05-26.25 19.3-26.25L19.3-26.25 14.75-26.25Z" opacity="1" transform="matrix(1,0,0,1,0,0)" fill="#2e1065" class="wordmark-text-0" data-fill-palette-color="quaternary" id="text-0"></path>
                                </svg>
                              </g>
                            </svg>
                          </g>
                        </svg>
                      </g>
                    </svg>
                  </g>
                </svg>
              </g>
            </svg>
          </g>
        </svg>
      </g>
    </svg>
    <rect width="512" height="320" fill="none" stroke="none" visibility="hidden"></rect>
  </g>
</svg>
